HIERARCHY
ROOT joint_Root
{
	OFFSET 0.0 0.0 0.0
	CHANNELS 6 Xposition Yposition Zposition Zrotation Xrotation Yrotation 
	JOINT Hips
	{
		OFFSET -0.726466 93.3139 -2.00062
		CHANNELS 6 Xposition Yposition Zposition Zrotation Xrotation Yrotation 
		JOINT Spine
		{
			OFFSET 15.7357 0.0 0.0
			CHANNELS 6 Xposition Yposition Zposition Zrotation Xrotation Yrotation 
			JOINT Chest
			{
				OFFSET 8.98455 -0.406207 0.0
				CHANNELS 6 Xposition Yposition Zposition Zrotation Xrotation Yrotation 
				JOINT Neck
				{
					OFFSET 16.3773 0.0 0.0
					CHANNELS 6 Xposition Yposition Zposition Zrotation Xrotation Yrotation 
					JOINT Head
					{
						OFFSET 6.45672 0.0 0.0
						CHANNELS 6 Xposition Yposition Zposition Zrotation Xrotation Yrotation 
						End Site
						{
							OFFSET 0.0 0.0 0.0
						}
					}
				}
				JOINT Shoulder_L
				{
					OFFSET 12.9942 -0.242716 4.98039
					CHANNELS 6 Xposition Yposition Zposition Zrotation Xrotation Yrotation 
					JOINT UpperArm_L
					{
						OFFSET 5.34809 0.0 0.0
						CHANNELS 6 Xposition Yposition Zposition Zrotation Xrotation Yrotation 
						JOINT LowerArm_L
						{
							OFFSET 24.3286 1.87007e-05 0.0
							CHANNELS 6 Xposition Yposition Zposition Zrotation Xrotation Yrotation 
							JOINT Hand_L
							{
								OFFSET 22.2916 0.0 0.0
								CHANNELS 6 Xposition Yposition Zposition Zrotation Xrotation Yrotation 
								End Site
								{
									OFFSET 0.0 0.0 0.0
								}
							}
						}
					}
				}
				JOINT Shoulder_R
				{
					OFFSET 12.9945 -0.242716 -4.98039
					CHANNELS 6 Xposition Yposition Zposition Zrotation Xrotation Yrotation 
					JOINT UpperArm_R
					{
						OFFSET -5.34813 0.0 0.0
						CHANNELS 6 Xposition Yposition Zposition Zrotation Xrotation Yrotation 
						JOINT LowerArm_R
						{
							OFFSET -24.3289 0.000322201 0.0
							CHANNELS 6 Xposition Yposition Zposition Zrotation Xrotation Yrotation 
							JOINT Hand_R
							{
								OFFSET -22.2915 -0.000108084 0.0
								CHANNELS 6 Xposition Yposition Zposition Zrotation Xrotation Yrotation 
								End Site
								{
									OFFSET 0.0 0.0 0.0
								}
							}
						}
					}
				}
			}
		}
		JOINT UpperLeg_L
		{
			OFFSET -2.19248 -6.46944 0.0
			CHANNELS 6 Xposition Yposition Zposition Zrotation Xrotation Yrotation 
			JOINT LowerLeg_L
			{
				OFFSET 39.0811 0.0 -1.23785e-05
				CHANNELS 6 Xposition Yposition Zposition Zrotation Xrotation Yrotation 
				JOINT Foot_L
				{
					OFFSET 40.9854 0.0 -1.26872e-05
					CHANNELS 6 Xposition Yposition Zposition Zrotation Xrotation Yrotation 
					JOINT Toes_L
					{
						OFFSET 11.7543 0.0 0.0
						CHANNELS 6 Xposition Yposition Zposition Zrotation Xrotation Yrotation 
						End Site
						{
							OFFSET 0.0 0.0 0.0
						}
					}
				}
			}
		}
		JOINT UpperLeg_R
		{
			OFFSET -2.19251 6.46944 0.0
			CHANNELS 6 Xposition Yposition Zposition Zrotation Xrotation Yrotation 
			JOINT LowerLeg_R
			{
				OFFSET -39.0811 -0.00228153 -0.0401928
				CHANNELS 6 Xposition Yposition Zposition Zrotation Xrotation Yrotation 
				JOINT Foot_R
				{
					OFFSET -40.9854 0.0 0.0
					CHANNELS 6 Xposition Yposition Zposition Zrotation Xrotation Yrotation 
					JOINT Toes_R
					{
						OFFSET -11.7543 0.0 0.0
						CHANNELS 6 Xposition Yposition Zposition Zrotation Xrotation Yrotation 
						End Site
						{
							OFFSET 0.0 0.0 0.0
						}
					}
				}
			}
		}
	}
}
MOTION
Frames:	4
Frame Time:	0.0333333
0.000000 0.000000 0.000000 0.000000 0.000000 -0.000000 115.549000 90.545400 173.488000 -84.587700 30.218400 -176.458000 15.735700 0.000005 -0.000001 78.202000 82.144700 -77.506700 8.984550 -0.406207 -0.000000 7.641450 -3.200260 1.603230 16.377300 -0.000001 -0.000001 7.090630 3.301750 -3.772060 6.456720 -0.000001 -0.000000 6.634110 7.911440 -5.646760 12.994200 -0.242716 4.980390 -89.511900 -1.402720 -70.811200 5.348090 -0.000007 -0.000001 -63.540200 43.530100 -28.060600 24.328600 0.000019 0.000005 0.804475 1.101690 -36.141300 22.291600 -0.000001 0.000005 9.717960 5.527210 -7.673320 12.994500 -0.242716 -4.980390 88.704400 3.678620 -70.582300 -5.348130 -0.000001 -0.000004 -73.382900 37.980400 -4.968790 -24.328900 0.000322 -0.000009 3.733390 8.936300 -22.791900 -22.291500 -0.000108 -0.000004 11.604900 5.523370 -7.504790 -2.192480 -6.469440 -0.000000 176.252000 -3.577380 -4.481810 39.081100 -0.000007 -0.000012 -0.054606 0.094191 30.102600 40.985400 -0.000006 -0.000013 9.256580 -2.781860 -69.968000 11.754300 -0.000000 0.000003 -0.000960 -0.014835 -17.180100 -2.192510 6.469440 -0.000001 176.528000 4.611870 163.013000 -39.081100 -0.002282 -0.040193 -0.004423 0.004246 60.863800 -40.985400 0.000008 0.000006 2.967300 -5.789200 -48.227000 -11.754300 -0.000006 -0.000006 -0.026071 -0.198855 -24.711000
0.000000 0.000000 0.000000 0.000000 0.000000 -0.000000 117.206000 90.847800 171.418000 -84.228400 27.199700 -176.755000 15.735700 0.000005 -0.000001 75.886600 82.132300 -74.887500 8.984550 -0.406207 -0.000000 7.541240 -3.824090 2.248760 16.377300 -0.000001 -0.000001 6.860100 2.805830 -3.423050 6.456720 -0.000001 -0.000000 6.373970 7.523860 -5.387570 12.994200 -0.242716 4.980390 -89.427200 -1.683190 -71.203200 5.348090 -0.000007 -0.000001 -59.947100 43.937700 -33.596300 24.328600 0.000019 0.000005 0.666161 0.818499 -39.145300 22.291600 -0.000001 0.000005 9.730550 5.536050 -8.063860 12.994500 -0.242716 -4.980390 88.603000 3.878650 -70.174400 -5.348130 -0.000001 -0.000004 -74.581000 36.125900 -3.463850 -24.328900 0.000322 -0.000009 3.361000 9.347930 -19.884700 -22.291500 -0.000108 -0.000004 11.150300 5.505420 -6.750960 -2.192480 -6.469440 -0.000000 177.027000 -1.412900 -1.540530 39.081100 -0.000007 -0.000012 -0.084992 0.161319 27.782900 40.985400 -0.000006 -0.000013 9.063010 -1.827600 -70.659500 11.754300 -0.000000 0.000003 -0.000738 -0.011622 -17.049600 -2.192510 6.469440 -0.000001 176.908000 2.011420 162.325000 -39.081100 -0.002282 -0.040193 -0.006444 0.007442 52.450700 -40.985400 0.000008 0.000006 3.583800 -7.879060 -51.114200 -11.754300 -0.000006 -0.000006 -0.025328 -0.195191 -24.559500
0.000000 0.000000 0.000000 0.000000 0.000000 -0.000000 118.855000 90.845400 169.434000 -84.325100 24.879800 -177.018000 15.735700 0.000005 -0.000001 74.426200 82.260400 -73.317700 8.984550 -0.406207 -0.000000 7.200410 -4.146500 2.476410 16.377300 -0.000001 -0.000001 6.822450 2.497610 -3.138210 6.456720 -0.000001 -0.000000 6.062910 7.258190 -4.969060 12.994200 -0.242716 4.980390 -89.293200 -2.093680 -71.340600 5.348090 -0.000007 -0.000001 -56.910800 43.951700 -38.319600 24.328600 0.000019 0.000005 0.647588 0.730325 -41.559600 22.291600 -0.000001 0.000005 9.969740 5.543800 -8.416860 12.994500 -0.242716 -4.980390 88.484300 4.154260 -69.935000 -5.348130 -0.000001 -0.000004 -75.158300 34.069300 -2.716440 -24.328900 0.000322 -0.000009 2.882880 9.886310 -16.353100 -22.291500 -0.000108 -0.000004 10.315700 5.474820 -5.549210 -2.192480 -6.469440 -0.000000 177.524000 -0.209747 0.545100 39.081100 -0.000007 -0.000012 -0.099411 0.199489 26.488400 40.985400 -0.000006 -0.000013 8.905170 -0.718719 -71.823600 11.754300 -0.000000 0.000003 -0.000045 -0.000753 -16.608000 -2.192510 6.469440 -0.000001 176.550000 -0.457562 161.794000 -39.081100 -0.002282 -0.040193 0.002763 0.000548 42.798900 -40.985400 0.000008 0.000006 3.464570 -9.265350 -52.723400 -11.754300 -0.000006 -0.000006 -0.024918 -0.193147 -24.474900
0.000000 0.000000 0.000000 0.000000 0.000000 -0.000000 120.509000 90.680700 167.467000 -84.606800 22.982500 -177.530000 15.735700 0.000005 -0.000001 73.270800 82.518500 -72.104300 8.984550 -0.406207 -0.000000 6.623020 -4.305330 2.580590 16.377300 -0.000001 -0.000001 6.733700 2.266080 -2.962160 6.456720 -0.000001 -0.000000 5.982210 7.064310 -4.633490 12.994200 -0.242716 4.980390 -89.210400 -2.359380 -71.490100 5.348090 -0.000007 -0.000001 -54.796600 43.540300 -41.728500 24.328600 0.000019 0.000005 0.693273 0.731574 -43.460600 22.291600 -0.000001 0.000005 10.317800 5.549670 -8.690400 12.994500 -0.242716 -4.980390 88.441600 4.254080 -69.858800 -5.348130 -0.000001 -0.000004 -75.286400 31.836200 -2.784350 -24.328900 0.000322 -0.000009 2.392900 10.846500 -12.526900 -22.291500 -0.000108 -0.000004 9.383110 5.433410 -4.054360 -2.192480 -6.469440 -0.000000 178.117000 0.011369 2.148490 39.081100 -0.000007 -0.000012 -0.111694 0.233875 25.528400 40.985400 -0.000006 -0.000013 8.857590 0.982391 -73.298100 11.754300 -0.000000 0.000003 -0.000001 -0.000019 -16.578200 -2.192510 6.469440 -0.000001 176.136000 -0.642862 161.283000 -39.081100 -0.002282 -0.040193 0.011528 -0.013063 32.212800 -40.985400 0.000008 0.000006 3.100860 -8.445630 -52.607800 -11.754300 -0.000006 -0.000006 -0.023475 -0.185828 -24.172500
